<?xml version="1.0" encoding="UTF-8" standalone="no"?>
<!DOCTYPE svg PUBLIC "-//W3C//DTD SVG 1.1//EN"
 "http://www.w3.org/Graphics/SVG/1.1/DTD/svg11.dtd">
<!-- Generated by graphviz version 2.40.1 (20161225.0304)
 -->
<!-- Title: categories Pages: 1 -->
<svg width="527pt" height="652pt"
 viewBox="0.00 0.00 527.00 652.00" xmlns="http://www.w3.org/2000/svg" xmlns:xlink="http://www.w3.org/1999/xlink">
<g id="graph0" class="graph" transform="scale(1 1) rotate(0) translate(4 648)">
<title>categories</title>
<polygon fill="#ffffff" stroke="transparent" points="-4,4 -4,-648 523,-648 523,4 -4,4"/>
<!-- categories -->
<g id="node1" class="node">
<title>categories</title>
<polygon fill="#efefef" stroke="transparent" points="46,-165.5 46,-200.5 240,-200.5 240,-165.5 46,-165.5"/>
<polygon fill="none" stroke="#000000" points="46,-165.5 46,-200.5 240,-200.5 240,-165.5 46,-165.5"/>
<text text-anchor="start" x="52.8633" y="-178.3" font-family="Arial Bold" font-size="18.00" fill="#000000">categories</text>
<text text-anchor="start" x="135.8829" y="-178.3" font-family="Arial" font-size="14.00" fill="#000000"> </text>
<text text-anchor="start" x="139.7735" y="-178.3" font-family="Arial" font-size="14.00" fill="#666666">[BASE TABLE]</text>
<polygon fill="none" stroke="#000000" points="46,-135.5 46,-165.5 240,-165.5 240,-135.5 46,-135.5"/>
<text text-anchor="start" x="53" y="-146.9" font-family="Arial" font-size="14.00" fill="#000000">id </text>
<text text-anchor="start" x="67.7798" y="-146.9" font-family="Arial" font-size="14.00" fill="#666666">[bigint unsigned]</text>
<polygon fill="none" stroke="#000000" points="46,-105.5 46,-135.5 240,-135.5 240,-105.5 46,-105.5"/>
<text text-anchor="start" x="53" y="-116.9" font-family="Arial" font-size="14.00" fill="#000000">name </text>
<text text-anchor="start" x="91.899" y="-116.9" font-family="Arial" font-size="14.00" fill="#666666">[varchar(255)]</text>
<polygon fill="none" stroke="#000000" points="46,-75.5 46,-105.5 240,-105.5 240,-75.5 46,-75.5"/>
<text text-anchor="start" x="53" y="-86.9" font-family="Arial" font-size="14.00" fill="#000000">created_at </text>
<text text-anchor="start" x="123.028" y="-86.9" font-family="Arial" font-size="14.00" fill="#666666">[timestamp]</text>
<polygon fill="none" stroke="#000000" points="46,-45.5 46,-75.5 240,-75.5 240,-45.5 46,-45.5"/>
<text text-anchor="start" x="53" y="-56.9" font-family="Arial" font-size="14.00" fill="#000000">updated_at </text>
<text text-anchor="start" x="126.9326" y="-56.9" font-family="Arial" font-size="14.00" fill="#666666">[timestamp]</text>
<polygon fill="none" stroke="#000000" stroke-width="3" points="44.5,-44.5 44.5,-202.5 241.5,-202.5 241.5,-44.5 44.5,-44.5"/>
</g>
<!-- issues -->
<g id="node2" class="node">
<title>issues</title>
<polygon fill="#efefef" stroke="transparent" points="47,-565.5 47,-600.5 239,-600.5 239,-565.5 47,-565.5"/>
<polygon fill="none" stroke="#000000" points="47,-565.5 47,-600.5 239,-600.5 239,-565.5 47,-565.5"/>
<text text-anchor="start" x="68.8698" y="-578.3" font-family="Arial Bold" font-size="18.00" fill="#000000">issues</text>
<text text-anchor="start" x="119.8764" y="-578.3" font-family="Arial" font-size="14.00" fill="#000000"> </text>
<text text-anchor="start" x="123.767" y="-578.3" font-family="Arial" font-size="14.00" fill="#666666">[BASE TABLE]</text>
<polygon fill="none" stroke="#000000" points="47,-535.5 47,-565.5 239,-565.5 239,-535.5 47,-535.5"/>
<text text-anchor="start" x="54" y="-546.9" font-family="Arial" font-size="14.00" fill="#000000">id </text>
<text text-anchor="start" x="68.7798" y="-546.9" font-family="Arial" font-size="14.00" fill="#666666">[bigint unsigned]</text>
<polygon fill="none" stroke="#000000" points="47,-505.5 47,-535.5 239,-535.5 239,-505.5 47,-505.5"/>
<text text-anchor="start" x="54" y="-516.9" font-family="Arial" font-size="14.00" fill="#000000">title </text>
<text text-anchor="start" x="79.6676" y="-516.9" font-family="Arial" font-size="14.00" fill="#666666">[varchar(255)]</text>
<polygon fill="none" stroke="#000000" points="47,-475.5 47,-505.5 239,-505.5 239,-475.5 47,-475.5"/>
<text text-anchor="start" x="54" y="-486.9" font-family="Arial" font-size="14.00" fill="#000000">overview </text>
<text text-anchor="start" x="113.1122" y="-486.9" font-family="Arial" font-size="14.00" fill="#666666">[text]</text>
<polygon fill="none" stroke="#000000" points="47,-445.5 47,-475.5 239,-475.5 239,-445.5 47,-445.5"/>
<text text-anchor="start" x="54" y="-456.9" font-family="Arial" font-size="14.00" fill="#000000">image_path </text>
<text text-anchor="start" x="131.0266" y="-456.9" font-family="Arial" font-size="14.00" fill="#666666">[text]</text>
<polygon fill="none" stroke="#000000" points="47,-415.5 47,-445.5 239,-445.5 239,-415.5 47,-415.5"/>
<text text-anchor="start" x="54" y="-426.9" font-family="Arial" font-size="14.00" fill="#000000">content </text>
<text text-anchor="start" x="103.8022" y="-426.9" font-family="Arial" font-size="14.00" fill="#666666">[text]</text>
<polygon fill="none" stroke="#000000" points="47,-385.5 47,-415.5 239,-415.5 239,-385.5 47,-385.5"/>
<text text-anchor="start" x="53.9152" y="-396.9" font-family="Arial" font-size="14.00" fill="#000000">category_id </text>
<text text-anchor="start" x="130.1592" y="-396.9" font-family="Arial" font-size="14.00" fill="#666666">[bigint unsigned]</text>
<polygon fill="none" stroke="#000000" points="47,-355.5 47,-385.5 239,-385.5 239,-355.5 47,-355.5"/>
<text text-anchor="start" x="54" y="-366.9" font-family="Arial" font-size="14.00" fill="#000000">created_at </text>
<text text-anchor="start" x="124.028" y="-366.9" font-family="Arial" font-size="14.00" fill="#666666">[timestamp]</text>
<polygon fill="none" stroke="#000000" points="47,-325.5 47,-355.5 239,-355.5 239,-325.5 47,-325.5"/>
<text text-anchor="start" x="54" y="-336.9" font-family="Arial" font-size="14.00" fill="#000000">updated_at </text>
<text text-anchor="start" x="127.9326" y="-336.9" font-family="Arial" font-size="14.00" fill="#666666">[timestamp]</text>
</g>
<!-- issues&#45;&gt;categories -->
<g id="edge1" class="edge">
<title>issues:category_id&#45;&gt;categories:id</title>
<path fill="none" stroke="#000000" d="M248.7769,-397.6924C294.4601,-370.2266 292.0837,-150.5 240,-150.5"/>
<polygon fill="#000000" stroke="#000000" points="248.6115,-397.7398 237.7579,-396.1748 243.8058,-399.1199 239,-400.5 239,-400.5 239,-400.5 243.8058,-399.1199 240.2421,-404.8252 248.6115,-397.7398 248.6115,-397.7398"/>
<text text-anchor="start" x="245.659" y="-410.5" font-family="Arial" font-size="10.00" fill="#000000">FOREIGN KEY (category_id) REFERENCES categories (id)</text>
</g>
</g>
</svg>
