<?xml version="1.0" encoding="UTF-8" standalone="no"?>
<!DOCTYPE svg PUBLIC "-//W3C//DTD SVG 1.1//EN"
 "http://www.w3.org/Graphics/SVG/1.1/DTD/svg11.dtd">
<!-- Generated by graphviz version 2.40.1 (20161225.0304)
 -->
<!-- Title: groups Pages: 1 -->
<svg width="513pt" height="712pt"
 viewBox="0.00 0.00 513.00 712.00" xmlns="http://www.w3.org/2000/svg" xmlns:xlink="http://www.w3.org/1999/xlink">
<g id="graph0" class="graph" transform="scale(1 1) rotate(0) translate(4 708)">
<title>groups</title>
<polygon fill="#ffffff" stroke="transparent" points="-4,4 -4,-708 509,-708 509,4 -4,4"/>
<!-- groups -->
<g id="node1" class="node">
<title>groups</title>
<polygon fill="#efefef" stroke="transparent" points="65,-165.5 65,-200.5 231,-200.5 231,-165.5 65,-165.5"/>
<polygon fill="none" stroke="#000000" points="65,-165.5 65,-200.5 231,-200.5 231,-165.5 65,-165.5"/>
<text text-anchor="start" x="71.8646" y="-178.3" font-family="Arial Bold" font-size="18.00" fill="#000000">groups</text>
<text text-anchor="start" x="126.8816" y="-178.3" font-family="Arial" font-size="14.00" fill="#000000"> </text>
<text text-anchor="start" x="130.7722" y="-178.3" font-family="Arial" font-size="14.00" fill="#666666">[BASE TABLE]</text>
<polygon fill="none" stroke="#000000" points="65,-135.5 65,-165.5 231,-165.5 231,-135.5 65,-135.5"/>
<text text-anchor="start" x="72" y="-146.9" font-family="Arial" font-size="14.00" fill="#000000">id </text>
<text text-anchor="start" x="86.7798" y="-146.9" font-family="Arial" font-size="14.00" fill="#666666">[bigint unsigned]</text>
<polygon fill="none" stroke="#000000" points="65,-105.5 65,-135.5 231,-135.5 231,-105.5 65,-105.5"/>
<text text-anchor="start" x="72" y="-116.9" font-family="Arial" font-size="14.00" fill="#000000">name </text>
<text text-anchor="start" x="110.899" y="-116.9" font-family="Arial" font-size="14.00" fill="#666666">[varchar(255)]</text>
<polygon fill="none" stroke="#000000" points="65,-75.5 65,-105.5 231,-105.5 231,-75.5 65,-75.5"/>
<text text-anchor="start" x="72" y="-86.9" font-family="Arial" font-size="14.00" fill="#000000">created_at </text>
<text text-anchor="start" x="142.028" y="-86.9" font-family="Arial" font-size="14.00" fill="#666666">[timestamp]</text>
<polygon fill="none" stroke="#000000" points="65,-45.5 65,-75.5 231,-75.5 231,-45.5 65,-45.5"/>
<text text-anchor="start" x="72" y="-56.9" font-family="Arial" font-size="14.00" fill="#000000">updated_at </text>
<text text-anchor="start" x="145.9326" y="-56.9" font-family="Arial" font-size="14.00" fill="#666666">[timestamp]</text>
<polygon fill="none" stroke="#000000" stroke-width="3" points="63.5,-44.5 63.5,-202.5 232.5,-202.5 232.5,-44.5 63.5,-44.5"/>
</g>
<!-- users -->
<g id="node2" class="node">
<title>users</title>
<polygon fill="#efefef" stroke="transparent" points="43,-625.5 43,-660.5 253,-660.5 253,-625.5 43,-625.5"/>
<polygon fill="none" stroke="#000000" points="43,-625.5 43,-660.5 253,-660.5 253,-625.5 43,-625.5"/>
<text text-anchor="start" x="77.3708" y="-638.3" font-family="Arial Bold" font-size="18.00" fill="#000000">users</text>
<text text-anchor="start" x="121.3754" y="-638.3" font-family="Arial" font-size="14.00" fill="#000000"> </text>
<text text-anchor="start" x="125.266" y="-638.3" font-family="Arial" font-size="14.00" fill="#666666">[BASE TABLE]</text>
<polygon fill="none" stroke="#000000" points="43,-595.5 43,-625.5 253,-625.5 253,-595.5 43,-595.5"/>
<text text-anchor="start" x="50" y="-606.9" font-family="Arial" font-size="14.00" fill="#000000">id </text>
<text text-anchor="start" x="64.7798" y="-606.9" font-family="Arial" font-size="14.00" fill="#666666">[bigint unsigned]</text>
<polygon fill="none" stroke="#000000" points="43,-565.5 43,-595.5 253,-595.5 253,-565.5 43,-565.5"/>
<text text-anchor="start" x="50" y="-576.9" font-family="Arial" font-size="14.00" fill="#000000">name </text>
<text text-anchor="start" x="88.899" y="-576.9" font-family="Arial" font-size="14.00" fill="#666666">[varchar(255)]</text>
<polygon fill="none" stroke="#000000" points="43,-535.5 43,-565.5 253,-565.5 253,-535.5 43,-535.5"/>
<text text-anchor="start" x="50" y="-546.9" font-family="Arial" font-size="14.00" fill="#000000">email </text>
<text text-anchor="start" x="87.3296" y="-546.9" font-family="Arial" font-size="14.00" fill="#666666">[varchar(255)]</text>
<polygon fill="none" stroke="#000000" points="43,-505.5 43,-535.5 253,-535.5 253,-505.5 43,-505.5"/>
<text text-anchor="start" x="50" y="-516.9" font-family="Arial" font-size="14.00" fill="#000000">email_verified_at </text>
<text text-anchor="start" x="159.6802" y="-516.9" font-family="Arial" font-size="14.00" fill="#666666">[timestamp]</text>
<polygon fill="none" stroke="#000000" points="43,-475.5 43,-505.5 253,-505.5 253,-475.5 43,-475.5"/>
<text text-anchor="start" x="50" y="-486.9" font-family="Arial" font-size="14.00" fill="#000000">password </text>
<text text-anchor="start" x="113.7882" y="-486.9" font-family="Arial" font-size="14.00" fill="#666666">[varchar(255)]</text>
<polygon fill="none" stroke="#000000" points="43,-445.5 43,-475.5 253,-475.5 253,-445.5 43,-445.5"/>
<text text-anchor="start" x="49.5982" y="-456.9" font-family="Arial" font-size="14.00" fill="#000000">remember_token </text>
<text text-anchor="start" x="159.2826" y="-456.9" font-family="Arial" font-size="14.00" fill="#666666">[varchar(100)]</text>
<polygon fill="none" stroke="#000000" points="43,-415.5 43,-445.5 253,-445.5 253,-415.5 43,-415.5"/>
<text text-anchor="start" x="50" y="-426.9" font-family="Arial" font-size="14.00" fill="#000000">group_id </text>
<text text-anchor="start" x="108.3534" y="-426.9" font-family="Arial" font-size="14.00" fill="#666666">[bigint unsigned]</text>
<polygon fill="none" stroke="#000000" points="43,-385.5 43,-415.5 253,-415.5 253,-385.5 43,-385.5"/>
<text text-anchor="start" x="50" y="-396.9" font-family="Arial" font-size="14.00" fill="#000000">is_admin </text>
<text text-anchor="start" x="109.8948" y="-396.9" font-family="Arial" font-size="14.00" fill="#666666">[tinyint(1)]</text>
<polygon fill="none" stroke="#000000" points="43,-355.5 43,-385.5 253,-385.5 253,-355.5 43,-355.5"/>
<text text-anchor="start" x="50" y="-366.9" font-family="Arial" font-size="14.00" fill="#000000">created_at </text>
<text text-anchor="start" x="120.028" y="-366.9" font-family="Arial" font-size="14.00" fill="#666666">[timestamp]</text>
<polygon fill="none" stroke="#000000" points="43,-325.5 43,-355.5 253,-355.5 253,-325.5 43,-325.5"/>
<text text-anchor="start" x="50" y="-336.9" font-family="Arial" font-size="14.00" fill="#000000">updated_at </text>
<text text-anchor="start" x="123.9326" y="-336.9" font-family="Arial" font-size="14.00" fill="#666666">[timestamp]</text>
</g>
<!-- users&#45;&gt;groups -->
<g id="edge1" class="edge">
<title>users:group_id&#45;&gt;groups:id</title>
<path fill="none" stroke="#000000" d="M262.8011,-427.9069C312.7921,-399.6795 289.8788,-150.5 231,-150.5"/>
<polygon fill="#000000" stroke="#000000" points="262.6674,-427.9422 251.849,-426.1497 257.8337,-429.2211 253,-430.5 253,-430.5 253,-430.5 257.8337,-429.2211 254.151,-434.8503 262.6674,-427.9422 262.6674,-427.9422"/>
<text text-anchor="start" x="259.827" y="-440.5" font-family="Arial" font-size="10.00" fill="#000000">FOREIGN KEY (group_id) REFERENCES groups (id)</text>
</g>
</g>
</svg>
