<?xml version="1.0" encoding="UTF-8" standalone="no"?>
<!DOCTYPE svg PUBLIC "-//W3C//DTD SVG 1.1//EN"
 "http://www.w3.org/Graphics/SVG/1.1/DTD/svg11.dtd">
<!-- Generated by graphviz version 2.40.1 (20161225.0304)
 -->
<!-- Title: issues Pages: 1 -->
<svg width="526pt" height="989pt"
 viewBox="0.00 0.00 526.00 989.00" xmlns="http://www.w3.org/2000/svg" xmlns:xlink="http://www.w3.org/1999/xlink">
<g id="graph0" class="graph" transform="scale(1 1) rotate(0) translate(4 985)">
<title>issues</title>
<polygon fill="#ffffff" stroke="transparent" points="-4,4 -4,-985 522,-985 522,4 -4,4"/>
<!-- issues -->
<g id="node1" class="node">
<title>issues</title>
<polygon fill="#efefef" stroke="transparent" points="46,-562.5 46,-597.5 238,-597.5 238,-562.5 46,-562.5"/>
<polygon fill="none" stroke="#000000" points="46,-562.5 46,-597.5 238,-597.5 238,-562.5 46,-562.5"/>
<text text-anchor="start" x="67.8698" y="-575.3" font-family="Arial Bold" font-size="18.00" fill="#000000">issues</text>
<text text-anchor="start" x="118.8764" y="-575.3" font-family="Arial" font-size="14.00" fill="#000000"> </text>
<text text-anchor="start" x="122.767" y="-575.3" font-family="Arial" font-size="14.00" fill="#666666">[BASE TABLE]</text>
<polygon fill="none" stroke="#000000" points="46,-532.5 46,-562.5 238,-562.5 238,-532.5 46,-532.5"/>
<text text-anchor="start" x="53" y="-543.9" font-family="Arial" font-size="14.00" fill="#000000">id </text>
<text text-anchor="start" x="67.7798" y="-543.9" font-family="Arial" font-size="14.00" fill="#666666">[bigint unsigned]</text>
<polygon fill="none" stroke="#000000" points="46,-502.5 46,-532.5 238,-532.5 238,-502.5 46,-502.5"/>
<text text-anchor="start" x="53" y="-513.9" font-family="Arial" font-size="14.00" fill="#000000">title </text>
<text text-anchor="start" x="78.6676" y="-513.9" font-family="Arial" font-size="14.00" fill="#666666">[varchar(255)]</text>
<polygon fill="none" stroke="#000000" points="46,-472.5 46,-502.5 238,-502.5 238,-472.5 46,-472.5"/>
<text text-anchor="start" x="53" y="-483.9" font-family="Arial" font-size="14.00" fill="#000000">overview </text>
<text text-anchor="start" x="112.1122" y="-483.9" font-family="Arial" font-size="14.00" fill="#666666">[text]</text>
<polygon fill="none" stroke="#000000" points="46,-442.5 46,-472.5 238,-472.5 238,-442.5 46,-442.5"/>
<text text-anchor="start" x="53" y="-453.9" font-family="Arial" font-size="14.00" fill="#000000">image_path </text>
<text text-anchor="start" x="130.0266" y="-453.9" font-family="Arial" font-size="14.00" fill="#666666">[text]</text>
<polygon fill="none" stroke="#000000" points="46,-412.5 46,-442.5 238,-442.5 238,-412.5 46,-412.5"/>
<text text-anchor="start" x="53" y="-423.9" font-family="Arial" font-size="14.00" fill="#000000">content </text>
<text text-anchor="start" x="102.8022" y="-423.9" font-family="Arial" font-size="14.00" fill="#666666">[text]</text>
<polygon fill="none" stroke="#000000" points="46,-382.5 46,-412.5 238,-412.5 238,-382.5 46,-382.5"/>
<text text-anchor="start" x="52.9152" y="-393.9" font-family="Arial" font-size="14.00" fill="#000000">category_id </text>
<text text-anchor="start" x="129.1592" y="-393.9" font-family="Arial" font-size="14.00" fill="#666666">[bigint unsigned]</text>
<polygon fill="none" stroke="#000000" points="46,-352.5 46,-382.5 238,-382.5 238,-352.5 46,-352.5"/>
<text text-anchor="start" x="53" y="-363.9" font-family="Arial" font-size="14.00" fill="#000000">created_at </text>
<text text-anchor="start" x="123.028" y="-363.9" font-family="Arial" font-size="14.00" fill="#666666">[timestamp]</text>
<polygon fill="none" stroke="#000000" points="46,-322.5 46,-352.5 238,-352.5 238,-322.5 46,-322.5"/>
<text text-anchor="start" x="53" y="-333.9" font-family="Arial" font-size="14.00" fill="#000000">updated_at </text>
<text text-anchor="start" x="126.9326" y="-333.9" font-family="Arial" font-size="14.00" fill="#666666">[timestamp]</text>
<polygon fill="none" stroke="#000000" stroke-width="3" points="44.5,-321.5 44.5,-599.5 239.5,-599.5 239.5,-321.5 44.5,-321.5"/>
</g>
<!-- categories -->
<g id="node3" class="node">
<title>categories</title>
<polygon fill="#efefef" stroke="transparent" points="45,-162.5 45,-197.5 239,-197.5 239,-162.5 45,-162.5"/>
<polygon fill="none" stroke="#000000" points="45,-162.5 45,-197.5 239,-197.5 239,-162.5 45,-162.5"/>
<text text-anchor="start" x="51.8633" y="-175.3" font-family="Arial Bold" font-size="18.00" fill="#000000">categories</text>
<text text-anchor="start" x="134.8829" y="-175.3" font-family="Arial" font-size="14.00" fill="#000000"> </text>
<text text-anchor="start" x="138.7735" y="-175.3" font-family="Arial" font-size="14.00" fill="#666666">[BASE TABLE]</text>
<polygon fill="none" stroke="#000000" points="45,-132.5 45,-162.5 239,-162.5 239,-132.5 45,-132.5"/>
<text text-anchor="start" x="52" y="-143.9" font-family="Arial" font-size="14.00" fill="#000000">id </text>
<text text-anchor="start" x="66.7798" y="-143.9" font-family="Arial" font-size="14.00" fill="#666666">[bigint unsigned]</text>
<polygon fill="none" stroke="#000000" points="45,-102.5 45,-132.5 239,-132.5 239,-102.5 45,-102.5"/>
<text text-anchor="start" x="52" y="-113.9" font-family="Arial" font-size="14.00" fill="#000000">name </text>
<text text-anchor="start" x="90.899" y="-113.9" font-family="Arial" font-size="14.00" fill="#666666">[varchar(255)]</text>
<polygon fill="none" stroke="#000000" points="45,-72.5 45,-102.5 239,-102.5 239,-72.5 45,-72.5"/>
<text text-anchor="start" x="52" y="-83.9" font-family="Arial" font-size="14.00" fill="#000000">created_at </text>
<text text-anchor="start" x="122.028" y="-83.9" font-family="Arial" font-size="14.00" fill="#666666">[timestamp]</text>
<polygon fill="none" stroke="#000000" points="45,-42.5 45,-72.5 239,-72.5 239,-42.5 45,-42.5"/>
<text text-anchor="start" x="52" y="-53.9" font-family="Arial" font-size="14.00" fill="#000000">updated_at </text>
<text text-anchor="start" x="125.9326" y="-53.9" font-family="Arial" font-size="14.00" fill="#666666">[timestamp]</text>
</g>
<!-- issues&#45;&gt;categories -->
<g id="edge2" class="edge">
<title>issues:category_id&#45;&gt;categories:id</title>
<path fill="none" stroke="#000000" d="M247.7769,-394.6924C293.4601,-367.2266 291.0837,-147.5 239,-147.5"/>
<polygon fill="#000000" stroke="#000000" points="247.6115,-394.7398 236.7579,-393.1748 242.8058,-396.1199 238,-397.5 238,-397.5 238,-397.5 242.8058,-396.1199 239.2421,-401.8252 247.6115,-394.7398 247.6115,-394.7398"/>
<text text-anchor="start" x="244.659" y="-407.5" font-family="Arial" font-size="10.00" fill="#000000">FOREIGN KEY (category_id) REFERENCES categories (id)</text>
</g>
<!-- results -->
<g id="node2" class="node">
<title>results</title>
<polygon fill="#efefef" stroke="transparent" points="56,-902.5 56,-937.5 227,-937.5 227,-902.5 56,-902.5"/>
<polygon fill="none" stroke="#000000" points="56,-902.5 56,-937.5 227,-937.5 227,-902.5 56,-902.5"/>
<text text-anchor="start" x="66.3726" y="-915.3" font-family="Arial Bold" font-size="18.00" fill="#000000">results</text>
<text text-anchor="start" x="119.3736" y="-915.3" font-family="Arial" font-size="14.00" fill="#000000"> </text>
<text text-anchor="start" x="123.2642" y="-915.3" font-family="Arial" font-size="14.00" fill="#666666">[BASE TABLE]</text>
<polygon fill="none" stroke="#000000" points="56,-872.5 56,-902.5 227,-902.5 227,-872.5 56,-872.5"/>
<text text-anchor="start" x="63" y="-883.9" font-family="Arial" font-size="14.00" fill="#000000">id </text>
<text text-anchor="start" x="77.7798" y="-883.9" font-family="Arial" font-size="14.00" fill="#666666">[bigint unsigned]</text>
<polygon fill="none" stroke="#000000" points="56,-842.5 56,-872.5 227,-872.5 227,-842.5 56,-842.5"/>
<text text-anchor="start" x="63" y="-853.9" font-family="Arial" font-size="14.00" fill="#000000">user_id </text>
<text text-anchor="start" x="112.7882" y="-853.9" font-family="Arial" font-size="14.00" fill="#666666">[bigint unsigned]</text>
<polygon fill="none" stroke="#000000" points="56,-812.5 56,-842.5 227,-842.5 227,-812.5 56,-812.5"/>
<text text-anchor="start" x="62.9201" y="-823.9" font-family="Arial" font-size="14.00" fill="#000000">issue_id </text>
<text text-anchor="start" x="118.1543" y="-823.9" font-family="Arial" font-size="14.00" fill="#666666">[bigint unsigned]</text>
<polygon fill="none" stroke="#000000" points="56,-782.5 56,-812.5 227,-812.5 227,-782.5 56,-782.5"/>
<text text-anchor="start" x="63" y="-793.9" font-family="Arial" font-size="14.00" fill="#000000">answer </text>
<text text-anchor="start" x="112.0056" y="-793.9" font-family="Arial" font-size="14.00" fill="#666666">[tinyint(1)]</text>
<polygon fill="none" stroke="#000000" points="56,-752.5 56,-782.5 227,-782.5 227,-752.5 56,-752.5"/>
<text text-anchor="start" x="63" y="-763.9" font-family="Arial" font-size="14.00" fill="#000000">created_at </text>
<text text-anchor="start" x="133.028" y="-763.9" font-family="Arial" font-size="14.00" fill="#666666">[timestamp]</text>
<polygon fill="none" stroke="#000000" points="56,-722.5 56,-752.5 227,-752.5 227,-722.5 56,-722.5"/>
<text text-anchor="start" x="63" y="-733.9" font-family="Arial" font-size="14.00" fill="#000000">updated_at </text>
<text text-anchor="start" x="136.9326" y="-733.9" font-family="Arial" font-size="14.00" fill="#666666">[timestamp]</text>
</g>
<!-- results&#45;&gt;issues -->
<g id="edge1" class="edge">
<title>results:issue_id&#45;&gt;issues:id</title>
<path fill="none" stroke="#000000" d="M237.2908,-826.5941C289.784,-816.6796 266.2328,-727.8045 227,-680 174.9664,-616.598 98.0336,-707.402 46,-644 18.7913,-610.8467 3.1111,-547.5 46,-547.5"/>
<polygon fill="#000000" stroke="#000000" points="236.9615,-826.623 226.6053,-823.0173 231.9807,-827.0615 227,-827.5 227,-827.5 227,-827.5 231.9807,-827.0615 227.3947,-831.9827 236.9615,-826.623 236.9615,-826.623"/>
<text text-anchor="start" x="234.055" y="-837.5" font-family="Arial" font-size="10.00" fill="#000000">FOREIGN KEY (issue_id) REFERENCES issues (id)</text>
</g>
</g>
</svg>
