<?xml version="1.0" encoding="UTF-8" standalone="no"?>
<!DOCTYPE svg PUBLIC "-//W3C//DTD SVG 1.1//EN"
 "http://www.w3.org/Graphics/SVG/1.1/DTD/svg11.dtd">
<!-- Generated by graphviz version 2.40.1 (20161225.0304)
 -->
<!-- Title: results Pages: 1 -->
<svg width="666pt" height="772pt"
 viewBox="0.00 0.00 666.00 772.00" xmlns="http://www.w3.org/2000/svg" xmlns:xlink="http://www.w3.org/1999/xlink">
<g id="graph0" class="graph" transform="scale(1 1) rotate(0) translate(4 768)">
<title>results</title>
<polygon fill="#ffffff" stroke="transparent" points="-4,4 -4,-768 662,-768 662,4 -4,4"/>
<!-- results -->
<g id="node1" class="node">
<title>results</title>
<polygon fill="#efefef" stroke="transparent" points="240,-682.5 240,-717.5 411,-717.5 411,-682.5 240,-682.5"/>
<polygon fill="none" stroke="#000000" points="240,-682.5 240,-717.5 411,-717.5 411,-682.5 240,-682.5"/>
<text text-anchor="start" x="250.3726" y="-695.3" font-family="Arial Bold" font-size="18.00" fill="#000000">results</text>
<text text-anchor="start" x="303.3736" y="-695.3" font-family="Arial" font-size="14.00" fill="#000000"> </text>
<text text-anchor="start" x="307.2642" y="-695.3" font-family="Arial" font-size="14.00" fill="#666666">[BASE TABLE]</text>
<polygon fill="none" stroke="#000000" points="240,-652.5 240,-682.5 411,-682.5 411,-652.5 240,-652.5"/>
<text text-anchor="start" x="247" y="-663.9" font-family="Arial" font-size="14.00" fill="#000000">id </text>
<text text-anchor="start" x="261.7798" y="-663.9" font-family="Arial" font-size="14.00" fill="#666666">[bigint unsigned]</text>
<polygon fill="none" stroke="#000000" points="240,-622.5 240,-652.5 411,-652.5 411,-622.5 240,-622.5"/>
<text text-anchor="start" x="247" y="-633.9" font-family="Arial" font-size="14.00" fill="#000000">user_id </text>
<text text-anchor="start" x="296.7882" y="-633.9" font-family="Arial" font-size="14.00" fill="#666666">[bigint unsigned]</text>
<polygon fill="none" stroke="#000000" points="240,-592.5 240,-622.5 411,-622.5 411,-592.5 240,-592.5"/>
<text text-anchor="start" x="246.9201" y="-603.9" font-family="Arial" font-size="14.00" fill="#000000">issue_id </text>
<text text-anchor="start" x="302.1543" y="-603.9" font-family="Arial" font-size="14.00" fill="#666666">[bigint unsigned]</text>
<polygon fill="none" stroke="#000000" points="240,-562.5 240,-592.5 411,-592.5 411,-562.5 240,-562.5"/>
<text text-anchor="start" x="247" y="-573.9" font-family="Arial" font-size="14.00" fill="#000000">answer </text>
<text text-anchor="start" x="296.0056" y="-573.9" font-family="Arial" font-size="14.00" fill="#666666">[tinyint(1)]</text>
<polygon fill="none" stroke="#000000" points="240,-532.5 240,-562.5 411,-562.5 411,-532.5 240,-532.5"/>
<text text-anchor="start" x="247" y="-543.9" font-family="Arial" font-size="14.00" fill="#000000">created_at </text>
<text text-anchor="start" x="317.028" y="-543.9" font-family="Arial" font-size="14.00" fill="#666666">[timestamp]</text>
<polygon fill="none" stroke="#000000" points="240,-502.5 240,-532.5 411,-532.5 411,-502.5 240,-502.5"/>
<text text-anchor="start" x="247" y="-513.9" font-family="Arial" font-size="14.00" fill="#000000">updated_at </text>
<text text-anchor="start" x="320.9326" y="-513.9" font-family="Arial" font-size="14.00" fill="#666666">[timestamp]</text>
<polygon fill="none" stroke="#000000" stroke-width="3" points="238,-501.5 238,-719.5 412,-719.5 412,-501.5 238,-501.5"/>
</g>
<!-- users -->
<g id="node2" class="node">
<title>users</title>
<polygon fill="#efefef" stroke="transparent" points="69,-342.5 69,-377.5 279,-377.5 279,-342.5 69,-342.5"/>
<polygon fill="none" stroke="#000000" points="69,-342.5 69,-377.5 279,-377.5 279,-342.5 69,-342.5"/>
<text text-anchor="start" x="103.3708" y="-355.3" font-family="Arial Bold" font-size="18.00" fill="#000000">users</text>
<text text-anchor="start" x="147.3754" y="-355.3" font-family="Arial" font-size="14.00" fill="#000000"> </text>
<text text-anchor="start" x="151.266" y="-355.3" font-family="Arial" font-size="14.00" fill="#666666">[BASE TABLE]</text>
<polygon fill="none" stroke="#000000" points="69,-312.5 69,-342.5 279,-342.5 279,-312.5 69,-312.5"/>
<text text-anchor="start" x="76" y="-323.9" font-family="Arial" font-size="14.00" fill="#000000">id </text>
<text text-anchor="start" x="90.7798" y="-323.9" font-family="Arial" font-size="14.00" fill="#666666">[bigint unsigned]</text>
<polygon fill="none" stroke="#000000" points="69,-282.5 69,-312.5 279,-312.5 279,-282.5 69,-282.5"/>
<text text-anchor="start" x="76" y="-293.9" font-family="Arial" font-size="14.00" fill="#000000">name </text>
<text text-anchor="start" x="114.899" y="-293.9" font-family="Arial" font-size="14.00" fill="#666666">[varchar(255)]</text>
<polygon fill="none" stroke="#000000" points="69,-252.5 69,-282.5 279,-282.5 279,-252.5 69,-252.5"/>
<text text-anchor="start" x="76" y="-263.9" font-family="Arial" font-size="14.00" fill="#000000">email </text>
<text text-anchor="start" x="113.3296" y="-263.9" font-family="Arial" font-size="14.00" fill="#666666">[varchar(255)]</text>
<polygon fill="none" stroke="#000000" points="69,-222.5 69,-252.5 279,-252.5 279,-222.5 69,-222.5"/>
<text text-anchor="start" x="76" y="-233.9" font-family="Arial" font-size="14.00" fill="#000000">email_verified_at </text>
<text text-anchor="start" x="185.6802" y="-233.9" font-family="Arial" font-size="14.00" fill="#666666">[timestamp]</text>
<polygon fill="none" stroke="#000000" points="69,-192.5 69,-222.5 279,-222.5 279,-192.5 69,-192.5"/>
<text text-anchor="start" x="76" y="-203.9" font-family="Arial" font-size="14.00" fill="#000000">password </text>
<text text-anchor="start" x="139.7882" y="-203.9" font-family="Arial" font-size="14.00" fill="#666666">[varchar(255)]</text>
<polygon fill="none" stroke="#000000" points="69,-162.5 69,-192.5 279,-192.5 279,-162.5 69,-162.5"/>
<text text-anchor="start" x="75.5982" y="-173.9" font-family="Arial" font-size="14.00" fill="#000000">remember_token </text>
<text text-anchor="start" x="185.2826" y="-173.9" font-family="Arial" font-size="14.00" fill="#666666">[varchar(100)]</text>
<polygon fill="none" stroke="#000000" points="69,-132.5 69,-162.5 279,-162.5 279,-132.5 69,-132.5"/>
<text text-anchor="start" x="76" y="-143.9" font-family="Arial" font-size="14.00" fill="#000000">group_id </text>
<text text-anchor="start" x="134.3534" y="-143.9" font-family="Arial" font-size="14.00" fill="#666666">[bigint unsigned]</text>
<polygon fill="none" stroke="#000000" points="69,-102.5 69,-132.5 279,-132.5 279,-102.5 69,-102.5"/>
<text text-anchor="start" x="76" y="-113.9" font-family="Arial" font-size="14.00" fill="#000000">is_admin </text>
<text text-anchor="start" x="135.8948" y="-113.9" font-family="Arial" font-size="14.00" fill="#666666">[tinyint(1)]</text>
<polygon fill="none" stroke="#000000" points="69,-72.5 69,-102.5 279,-102.5 279,-72.5 69,-72.5"/>
<text text-anchor="start" x="76" y="-83.9" font-family="Arial" font-size="14.00" fill="#000000">created_at </text>
<text text-anchor="start" x="146.028" y="-83.9" font-family="Arial" font-size="14.00" fill="#666666">[timestamp]</text>
<polygon fill="none" stroke="#000000" points="69,-42.5 69,-72.5 279,-72.5 279,-42.5 69,-42.5"/>
<text text-anchor="start" x="76" y="-53.9" font-family="Arial" font-size="14.00" fill="#000000">updated_at </text>
<text text-anchor="start" x="149.9326" y="-53.9" font-family="Arial" font-size="14.00" fill="#666666">[timestamp]</text>
</g>
<!-- results&#45;&gt;users -->
<g id="edge1" class="edge">
<title>results:user_id&#45;&gt;users:id</title>
<path fill="none" stroke="#000000" d="M229.9523,-636.8649C164.0625,-627.9532 209.2704,-527.1861 240,-457 249.461,-435.3913 269.539,-442.6087 279,-421 295.6668,-382.9332 320.5556,-327.5 279,-327.5"/>
<polygon fill="#000000" stroke="#000000" points="230.0199,-636.8691 239.7161,-641.991 235.01,-637.1845 240,-637.5 240,-637.5 240,-637.5 235.01,-637.1845 240.2839,-633.009 230.0199,-636.8691 230.0199,-636.8691"/>
<text text-anchor="start" x="6.945" y="-647.5" font-family="Arial" font-size="10.00" fill="#000000">FOREIGN KEY (user_id) REFERENCES users (id)</text>
</g>
<!-- issues -->
<g id="node3" class="node">
<title>issues</title>
<polygon fill="#efefef" stroke="transparent" points="383,-312.5 383,-347.5 575,-347.5 575,-312.5 383,-312.5"/>
<polygon fill="none" stroke="#000000" points="383,-312.5 383,-347.5 575,-347.5 575,-312.5 383,-312.5"/>
<text text-anchor="start" x="404.8698" y="-325.3" font-family="Arial Bold" font-size="18.00" fill="#000000">issues</text>
<text text-anchor="start" x="455.8764" y="-325.3" font-family="Arial" font-size="14.00" fill="#000000"> </text>
<text text-anchor="start" x="459.767" y="-325.3" font-family="Arial" font-size="14.00" fill="#666666">[BASE TABLE]</text>
<polygon fill="none" stroke="#000000" points="383,-282.5 383,-312.5 575,-312.5 575,-282.5 383,-282.5"/>
<text text-anchor="start" x="390" y="-293.9" font-family="Arial" font-size="14.00" fill="#000000">id </text>
<text text-anchor="start" x="404.7798" y="-293.9" font-family="Arial" font-size="14.00" fill="#666666">[bigint unsigned]</text>
<polygon fill="none" stroke="#000000" points="383,-252.5 383,-282.5 575,-282.5 575,-252.5 383,-252.5"/>
<text text-anchor="start" x="390" y="-263.9" font-family="Arial" font-size="14.00" fill="#000000">title </text>
<text text-anchor="start" x="415.6676" y="-263.9" font-family="Arial" font-size="14.00" fill="#666666">[varchar(255)]</text>
<polygon fill="none" stroke="#000000" points="383,-222.5 383,-252.5 575,-252.5 575,-222.5 383,-222.5"/>
<text text-anchor="start" x="390" y="-233.9" font-family="Arial" font-size="14.00" fill="#000000">overview </text>
<text text-anchor="start" x="449.1122" y="-233.9" font-family="Arial" font-size="14.00" fill="#666666">[text]</text>
<polygon fill="none" stroke="#000000" points="383,-192.5 383,-222.5 575,-222.5 575,-192.5 383,-192.5"/>
<text text-anchor="start" x="390" y="-203.9" font-family="Arial" font-size="14.00" fill="#000000">image_path </text>
<text text-anchor="start" x="467.0266" y="-203.9" font-family="Arial" font-size="14.00" fill="#666666">[text]</text>
<polygon fill="none" stroke="#000000" points="383,-162.5 383,-192.5 575,-192.5 575,-162.5 383,-162.5"/>
<text text-anchor="start" x="390" y="-173.9" font-family="Arial" font-size="14.00" fill="#000000">content </text>
<text text-anchor="start" x="439.8022" y="-173.9" font-family="Arial" font-size="14.00" fill="#666666">[text]</text>
<polygon fill="none" stroke="#000000" points="383,-132.5 383,-162.5 575,-162.5 575,-132.5 383,-132.5"/>
<text text-anchor="start" x="389.9152" y="-143.9" font-family="Arial" font-size="14.00" fill="#000000">category_id </text>
<text text-anchor="start" x="466.1592" y="-143.9" font-family="Arial" font-size="14.00" fill="#666666">[bigint unsigned]</text>
<polygon fill="none" stroke="#000000" points="383,-102.5 383,-132.5 575,-132.5 575,-102.5 383,-102.5"/>
<text text-anchor="start" x="390" y="-113.9" font-family="Arial" font-size="14.00" fill="#000000">created_at </text>
<text text-anchor="start" x="460.028" y="-113.9" font-family="Arial" font-size="14.00" fill="#666666">[timestamp]</text>
<polygon fill="none" stroke="#000000" points="383,-72.5 383,-102.5 575,-102.5 575,-72.5 383,-72.5"/>
<text text-anchor="start" x="390" y="-83.9" font-family="Arial" font-size="14.00" fill="#000000">updated_at </text>
<text text-anchor="start" x="463.9326" y="-83.9" font-family="Arial" font-size="14.00" fill="#666666">[timestamp]</text>
</g>
<!-- results&#45;&gt;issues -->
<g id="edge2" class="edge">
<title>results:issue_id&#45;&gt;issues:id</title>
<path fill="none" stroke="#000000" d="M421.2358,-606.7013C471.9506,-597.9387 423.5741,-518.8347 411,-457 404.6504,-425.7751 389.3496,-422.2249 383,-391 374.7192,-350.2779 341.4444,-297.5 383,-297.5"/>
<polygon fill="#000000" stroke="#000000" points="420.9697,-606.722 410.6499,-603.0136 415.9848,-607.111 411,-607.5 411,-607.5 411,-607.5 415.9848,-607.111 411.3501,-611.9864 420.9697,-606.722 420.9697,-606.722"/>
<text text-anchor="start" x="418.055" y="-617.5" font-family="Arial" font-size="10.00" fill="#000000">FOREIGN KEY (issue_id) REFERENCES issues (id)</text>
</g>
</g>
</svg>
