<?xml version="1.0" encoding="UTF-8" standalone="no"?>
<!DOCTYPE svg PUBLIC "-//W3C//DTD SVG 1.1//EN"
 "http://www.w3.org/Graphics/SVG/1.1/DTD/svg11.dtd">
<!-- Generated by graphviz version 2.40.1 (20161225.0304)
 -->
<!-- Title: laravel Pages: 1 -->
<svg width="1836pt" height="1163pt"
 viewBox="0.00 0.00 1835.50 1163.00" xmlns="http://www.w3.org/2000/svg" xmlns:xlink="http://www.w3.org/1999/xlink">
<g id="graph0" class="graph" transform="scale(1 1) rotate(0) translate(4 1159)">
<title>laravel</title>
<polygon fill="#ffffff" stroke="transparent" points="-4,4 -4,-1159 1831.5,-1159 1831.5,4 -4,4"/>
<!-- categories -->
<g id="node1" class="node">
<title>categories</title>
<polygon fill="#efefef" stroke="transparent" points="87,-162.5 87,-197.5 281,-197.5 281,-162.5 87,-162.5"/>
<polygon fill="none" stroke="#000000" points="87,-162.5 87,-197.5 281,-197.5 281,-162.5 87,-162.5"/>
<text text-anchor="start" x="93.8633" y="-175.3" font-family="Arial Bold" font-size="18.00" fill="#000000">categories</text>
<text text-anchor="start" x="176.8829" y="-175.3" font-family="Arial" font-size="14.00" fill="#000000"> </text>
<text text-anchor="start" x="180.7735" y="-175.3" font-family="Arial" font-size="14.00" fill="#666666">[BASE TABLE]</text>
<polygon fill="none" stroke="#000000" points="87,-132.5 87,-162.5 281,-162.5 281,-132.5 87,-132.5"/>
<text text-anchor="start" x="94" y="-143.9" font-family="Arial" font-size="14.00" fill="#000000">id </text>
<text text-anchor="start" x="108.7798" y="-143.9" font-family="Arial" font-size="14.00" fill="#666666">[bigint unsigned]</text>
<polygon fill="none" stroke="#000000" points="87,-102.5 87,-132.5 281,-132.5 281,-102.5 87,-102.5"/>
<text text-anchor="start" x="94" y="-113.9" font-family="Arial" font-size="14.00" fill="#000000">name </text>
<text text-anchor="start" x="132.899" y="-113.9" font-family="Arial" font-size="14.00" fill="#666666">[varchar(255)]</text>
<polygon fill="none" stroke="#000000" points="87,-72.5 87,-102.5 281,-102.5 281,-72.5 87,-72.5"/>
<text text-anchor="start" x="94" y="-83.9" font-family="Arial" font-size="14.00" fill="#000000">created_at </text>
<text text-anchor="start" x="164.028" y="-83.9" font-family="Arial" font-size="14.00" fill="#666666">[timestamp]</text>
<polygon fill="none" stroke="#000000" points="87,-42.5 87,-72.5 281,-72.5 281,-42.5 87,-42.5"/>
<text text-anchor="start" x="94" y="-53.9" font-family="Arial" font-size="14.00" fill="#000000">updated_at </text>
<text text-anchor="start" x="167.9326" y="-53.9" font-family="Arial" font-size="14.00" fill="#666666">[timestamp]</text>
</g>
<!-- failed_jobs -->
<g id="node2" class="node">
<title>failed_jobs</title>
<polygon fill="#efefef" stroke="transparent" points="525,-1031.5 525,-1066.5 722,-1066.5 722,-1031.5 525,-1031.5"/>
<polygon fill="none" stroke="#000000" points="525,-1031.5 525,-1066.5 722,-1066.5 722,-1031.5 525,-1031.5"/>
<text text-anchor="start" x="531.8621" y="-1044.3" font-family="Arial Bold" font-size="18.00" fill="#000000">failed_jobs</text>
<text text-anchor="start" x="617.8841" y="-1044.3" font-family="Arial" font-size="14.00" fill="#000000"> </text>
<text text-anchor="start" x="621.7747" y="-1044.3" font-family="Arial" font-size="14.00" fill="#666666">[BASE TABLE]</text>
<polygon fill="none" stroke="#000000" points="525,-1001.5 525,-1031.5 722,-1031.5 722,-1001.5 525,-1001.5"/>
<text text-anchor="start" x="532" y="-1012.9" font-family="Arial" font-size="14.00" fill="#000000">id </text>
<text text-anchor="start" x="546.7798" y="-1012.9" font-family="Arial" font-size="14.00" fill="#666666">[bigint unsigned]</text>
<polygon fill="none" stroke="#000000" points="525,-971.5 525,-1001.5 722,-1001.5 722,-971.5 525,-971.5"/>
<text text-anchor="start" x="532" y="-982.9" font-family="Arial" font-size="14.00" fill="#000000">uuid </text>
<text text-anchor="start" x="562.345" y="-982.9" font-family="Arial" font-size="14.00" fill="#666666">[varchar(255)]</text>
<polygon fill="none" stroke="#000000" points="525,-941.5 525,-971.5 722,-971.5 722,-941.5 525,-941.5"/>
<text text-anchor="start" x="532" y="-952.9" font-family="Arial" font-size="14.00" fill="#000000">connection </text>
<text text-anchor="start" x="603.5834" y="-952.9" font-family="Arial" font-size="14.00" fill="#666666">[text]</text>
<polygon fill="none" stroke="#000000" points="525,-911.5 525,-941.5 722,-941.5 722,-911.5 525,-911.5"/>
<text text-anchor="start" x="532" y="-922.9" font-family="Arial" font-size="14.00" fill="#000000">queue </text>
<text text-anchor="start" x="574.8036" y="-922.9" font-family="Arial" font-size="14.00" fill="#666666">[text]</text>
<polygon fill="none" stroke="#000000" points="525,-881.5 525,-911.5 722,-911.5 722,-881.5 525,-881.5"/>
<text text-anchor="start" x="532" y="-892.9" font-family="Arial" font-size="14.00" fill="#000000">payload </text>
<text text-anchor="start" x="584.9102" y="-892.9" font-family="Arial" font-size="14.00" fill="#666666">[longtext]</text>
<polygon fill="none" stroke="#000000" points="525,-851.5 525,-881.5 722,-881.5 722,-851.5 525,-851.5"/>
<text text-anchor="start" x="532" y="-862.9" font-family="Arial" font-size="14.00" fill="#000000">exception </text>
<text text-anchor="start" x="595.8008" y="-862.9" font-family="Arial" font-size="14.00" fill="#666666">[longtext]</text>
<polygon fill="none" stroke="#000000" points="525,-821.5 525,-851.5 722,-851.5 722,-821.5 525,-821.5"/>
<text text-anchor="start" x="532" y="-832.9" font-family="Arial" font-size="14.00" fill="#000000">failed_at </text>
<text text-anchor="start" x="588.798" y="-832.9" font-family="Arial" font-size="14.00" fill="#666666">[timestamp]</text>
</g>
<!-- groups -->
<g id="node3" class="node">
<title>groups</title>
<polygon fill="#efefef" stroke="transparent" points="406,-162.5 406,-197.5 572,-197.5 572,-162.5 406,-162.5"/>
<polygon fill="none" stroke="#000000" points="406,-162.5 406,-197.5 572,-197.5 572,-162.5 406,-162.5"/>
<text text-anchor="start" x="412.8646" y="-175.3" font-family="Arial Bold" font-size="18.00" fill="#000000">groups</text>
<text text-anchor="start" x="467.8816" y="-175.3" font-family="Arial" font-size="14.00" fill="#000000"> </text>
<text text-anchor="start" x="471.7722" y="-175.3" font-family="Arial" font-size="14.00" fill="#666666">[BASE TABLE]</text>
<polygon fill="none" stroke="#000000" points="406,-132.5 406,-162.5 572,-162.5 572,-132.5 406,-132.5"/>
<text text-anchor="start" x="413" y="-143.9" font-family="Arial" font-size="14.00" fill="#000000">id </text>
<text text-anchor="start" x="427.7798" y="-143.9" font-family="Arial" font-size="14.00" fill="#666666">[bigint unsigned]</text>
<polygon fill="none" stroke="#000000" points="406,-102.5 406,-132.5 572,-132.5 572,-102.5 406,-102.5"/>
<text text-anchor="start" x="413" y="-113.9" font-family="Arial" font-size="14.00" fill="#000000">name </text>
<text text-anchor="start" x="451.899" y="-113.9" font-family="Arial" font-size="14.00" fill="#666666">[varchar(255)]</text>
<polygon fill="none" stroke="#000000" points="406,-72.5 406,-102.5 572,-102.5 572,-72.5 406,-72.5"/>
<text text-anchor="start" x="413" y="-83.9" font-family="Arial" font-size="14.00" fill="#000000">created_at </text>
<text text-anchor="start" x="483.028" y="-83.9" font-family="Arial" font-size="14.00" fill="#666666">[timestamp]</text>
<polygon fill="none" stroke="#000000" points="406,-42.5 406,-72.5 572,-72.5 572,-42.5 406,-42.5"/>
<text text-anchor="start" x="413" y="-53.9" font-family="Arial" font-size="14.00" fill="#000000">updated_at </text>
<text text-anchor="start" x="486.9326" y="-53.9" font-family="Arial" font-size="14.00" fill="#666666">[timestamp]</text>
</g>
<!-- issues -->
<g id="node4" class="node">
<title>issues</title>
<polygon fill="#efefef" stroke="transparent" points="88,-589.5 88,-624.5 280,-624.5 280,-589.5 88,-589.5"/>
<polygon fill="none" stroke="#000000" points="88,-589.5 88,-624.5 280,-624.5 280,-589.5 88,-589.5"/>
<text text-anchor="start" x="109.8698" y="-602.3" font-family="Arial Bold" font-size="18.00" fill="#000000">issues</text>
<text text-anchor="start" x="160.8764" y="-602.3" font-family="Arial" font-size="14.00" fill="#000000"> </text>
<text text-anchor="start" x="164.767" y="-602.3" font-family="Arial" font-size="14.00" fill="#666666">[BASE TABLE]</text>
<polygon fill="none" stroke="#000000" points="88,-559.5 88,-589.5 280,-589.5 280,-559.5 88,-559.5"/>
<text text-anchor="start" x="95" y="-570.9" font-family="Arial" font-size="14.00" fill="#000000">id </text>
<text text-anchor="start" x="109.7798" y="-570.9" font-family="Arial" font-size="14.00" fill="#666666">[bigint unsigned]</text>
<polygon fill="none" stroke="#000000" points="88,-529.5 88,-559.5 280,-559.5 280,-529.5 88,-529.5"/>
<text text-anchor="start" x="95" y="-540.9" font-family="Arial" font-size="14.00" fill="#000000">title </text>
<text text-anchor="start" x="120.6676" y="-540.9" font-family="Arial" font-size="14.00" fill="#666666">[varchar(255)]</text>
<polygon fill="none" stroke="#000000" points="88,-499.5 88,-529.5 280,-529.5 280,-499.5 88,-499.5"/>
<text text-anchor="start" x="95" y="-510.9" font-family="Arial" font-size="14.00" fill="#000000">overview </text>
<text text-anchor="start" x="154.1122" y="-510.9" font-family="Arial" font-size="14.00" fill="#666666">[text]</text>
<polygon fill="none" stroke="#000000" points="88,-469.5 88,-499.5 280,-499.5 280,-469.5 88,-469.5"/>
<text text-anchor="start" x="95" y="-480.9" font-family="Arial" font-size="14.00" fill="#000000">image_path </text>
<text text-anchor="start" x="172.0266" y="-480.9" font-family="Arial" font-size="14.00" fill="#666666">[text]</text>
<polygon fill="none" stroke="#000000" points="88,-439.5 88,-469.5 280,-469.5 280,-439.5 88,-439.5"/>
<text text-anchor="start" x="95" y="-450.9" font-family="Arial" font-size="14.00" fill="#000000">content </text>
<text text-anchor="start" x="144.8022" y="-450.9" font-family="Arial" font-size="14.00" fill="#666666">[text]</text>
<polygon fill="none" stroke="#000000" points="88,-409.5 88,-439.5 280,-439.5 280,-409.5 88,-409.5"/>
<text text-anchor="start" x="94.9152" y="-420.9" font-family="Arial" font-size="14.00" fill="#000000">category_id </text>
<text text-anchor="start" x="171.1592" y="-420.9" font-family="Arial" font-size="14.00" fill="#666666">[bigint unsigned]</text>
<polygon fill="none" stroke="#000000" points="88,-379.5 88,-409.5 280,-409.5 280,-379.5 88,-379.5"/>
<text text-anchor="start" x="95" y="-390.9" font-family="Arial" font-size="14.00" fill="#000000">created_at </text>
<text text-anchor="start" x="165.028" y="-390.9" font-family="Arial" font-size="14.00" fill="#666666">[timestamp]</text>
<polygon fill="none" stroke="#000000" points="88,-349.5 88,-379.5 280,-379.5 280,-349.5 88,-349.5"/>
<text text-anchor="start" x="95" y="-360.9" font-family="Arial" font-size="14.00" fill="#000000">updated_at </text>
<text text-anchor="start" x="168.9326" y="-360.9" font-family="Arial" font-size="14.00" fill="#666666">[timestamp]</text>
</g>
<!-- issues&#45;&gt;categories -->
<g id="edge1" class="edge">
<title>issues:category_id&#45;&gt;categories:id</title>
<path fill="none" stroke="#000000" d="M289.8765,-421.9347C341.4685,-394.0098 339.0694,-147.5 281,-147.5"/>
<polygon fill="#000000" stroke="#000000" points="289.6788,-421.986 278.8687,-420.1445 284.8394,-423.243 280,-424.5 280,-424.5 280,-424.5 284.8394,-423.243 281.1313,-428.8555 289.6788,-421.986 289.6788,-421.986"/>
<text text-anchor="start" x="6.659" y="-434.5" font-family="Arial" font-size="10.00" fill="#000000">FOREIGN KEY (category_id) REFERENCES categories (id)</text>
</g>
<!-- migrations -->
<g id="node5" class="node">
<title>migrations</title>
<polygon fill="#efefef" stroke="transparent" points="826,-971.5 826,-1006.5 1020,-1006.5 1020,-971.5 826,-971.5"/>
<polygon fill="none" stroke="#000000" points="826,-971.5 826,-1006.5 1020,-1006.5 1020,-971.5 826,-971.5"/>
<text text-anchor="start" x="832.8732" y="-984.3" font-family="Arial Bold" font-size="18.00" fill="#000000">migrations</text>
<text text-anchor="start" x="915.873" y="-984.3" font-family="Arial" font-size="14.00" fill="#000000"> </text>
<text text-anchor="start" x="919.7636" y="-984.3" font-family="Arial" font-size="14.00" fill="#666666">[BASE TABLE]</text>
<polygon fill="none" stroke="#000000" points="826,-941.5 826,-971.5 1020,-971.5 1020,-941.5 826,-941.5"/>
<text text-anchor="start" x="833" y="-952.9" font-family="Arial" font-size="14.00" fill="#000000">id </text>
<text text-anchor="start" x="847.7798" y="-952.9" font-family="Arial" font-size="14.00" fill="#666666">[int unsigned]</text>
<polygon fill="none" stroke="#000000" points="826,-911.5 826,-941.5 1020,-941.5 1020,-911.5 826,-911.5"/>
<text text-anchor="start" x="833" y="-922.9" font-family="Arial" font-size="14.00" fill="#000000">migration </text>
<text text-anchor="start" x="894.446" y="-922.9" font-family="Arial" font-size="14.00" fill="#666666">[varchar(255)]</text>
<polygon fill="none" stroke="#000000" points="826,-881.5 826,-911.5 1020,-911.5 1020,-881.5 826,-881.5"/>
<text text-anchor="start" x="833" y="-892.9" font-family="Arial" font-size="14.00" fill="#000000">batch </text>
<text text-anchor="start" x="871.129" y="-892.9" font-family="Arial" font-size="14.00" fill="#666666">[int]</text>
</g>
<!-- password_resets -->
<g id="node6" class="node">
<title>password_resets</title>
<polygon fill="#efefef" stroke="transparent" points="1125,-971.5 1125,-1006.5 1372,-1006.5 1372,-971.5 1125,-971.5"/>
<polygon fill="none" stroke="#000000" points="1125,-971.5 1125,-1006.5 1372,-1006.5 1372,-971.5 1125,-971.5"/>
<text text-anchor="start" x="1131.861" y="-984.3" font-family="Arial Bold" font-size="18.00" fill="#000000">password_resets</text>
<text text-anchor="start" x="1267.8852" y="-984.3" font-family="Arial" font-size="14.00" fill="#000000"> </text>
<text text-anchor="start" x="1271.7758" y="-984.3" font-family="Arial" font-size="14.00" fill="#666666">[BASE TABLE]</text>
<polygon fill="none" stroke="#000000" points="1125,-941.5 1125,-971.5 1372,-971.5 1372,-941.5 1125,-941.5"/>
<text text-anchor="start" x="1132" y="-952.9" font-family="Arial" font-size="14.00" fill="#000000">email </text>
<text text-anchor="start" x="1169.3296" y="-952.9" font-family="Arial" font-size="14.00" fill="#666666">[varchar(255)]</text>
<polygon fill="none" stroke="#000000" points="1125,-911.5 1125,-941.5 1372,-941.5 1372,-911.5 1125,-911.5"/>
<text text-anchor="start" x="1132" y="-922.9" font-family="Arial" font-size="14.00" fill="#000000">token </text>
<text text-anchor="start" x="1170.129" y="-922.9" font-family="Arial" font-size="14.00" fill="#666666">[varchar(255)]</text>
<polygon fill="none" stroke="#000000" points="1125,-881.5 1125,-911.5 1372,-911.5 1372,-881.5 1125,-881.5"/>
<text text-anchor="start" x="1132" y="-892.9" font-family="Arial" font-size="14.00" fill="#000000">created_at </text>
<text text-anchor="start" x="1202.028" y="-892.9" font-family="Arial" font-size="14.00" fill="#666666">[timestamp]</text>
</g>
<!-- personal_access_tokens -->
<g id="node7" class="node">
<title>personal_access_tokens</title>
<polygon fill="#efefef" stroke="transparent" points="1476,-1076.5 1476,-1111.5 1785,-1111.5 1785,-1076.5 1476,-1076.5"/>
<polygon fill="none" stroke="#000000" points="1476,-1076.5 1476,-1111.5 1785,-1111.5 1785,-1076.5 1476,-1076.5"/>
<text text-anchor="start" x="1482.8416" y="-1089.3" font-family="Arial Bold" font-size="18.00" fill="#000000">personal_access_tokens</text>
<text text-anchor="start" x="1680.9046" y="-1089.3" font-family="Arial" font-size="14.00" fill="#000000"> </text>
<text text-anchor="start" x="1684.7952" y="-1089.3" font-family="Arial" font-size="14.00" fill="#666666">[BASE TABLE]</text>
<polygon fill="none" stroke="#000000" points="1476,-1046.5 1476,-1076.5 1785,-1076.5 1785,-1046.5 1476,-1046.5"/>
<text text-anchor="start" x="1483" y="-1057.9" font-family="Arial" font-size="14.00" fill="#000000">id </text>
<text text-anchor="start" x="1497.7798" y="-1057.9" font-family="Arial" font-size="14.00" fill="#666666">[bigint unsigned]</text>
<polygon fill="none" stroke="#000000" points="1476,-1016.5 1476,-1046.5 1785,-1046.5 1785,-1016.5 1476,-1016.5"/>
<text text-anchor="start" x="1483" y="-1027.9" font-family="Arial" font-size="14.00" fill="#000000">tokenable_type </text>
<text text-anchor="start" x="1581.8218" y="-1027.9" font-family="Arial" font-size="14.00" fill="#666666">[varchar(255)]</text>
<polygon fill="none" stroke="#000000" points="1476,-986.5 1476,-1016.5 1785,-1016.5 1785,-986.5 1476,-986.5"/>
<text text-anchor="start" x="1483" y="-997.9" font-family="Arial" font-size="14.00" fill="#000000">tokenable_id </text>
<text text-anchor="start" x="1566.2552" y="-997.9" font-family="Arial" font-size="14.00" fill="#666666">[bigint unsigned]</text>
<polygon fill="none" stroke="#000000" points="1476,-956.5 1476,-986.5 1785,-986.5 1785,-956.5 1476,-956.5"/>
<text text-anchor="start" x="1483" y="-967.9" font-family="Arial" font-size="14.00" fill="#000000">name </text>
<text text-anchor="start" x="1521.899" y="-967.9" font-family="Arial" font-size="14.00" fill="#666666">[varchar(255)]</text>
<polygon fill="none" stroke="#000000" points="1476,-926.5 1476,-956.5 1785,-956.5 1785,-926.5 1476,-926.5"/>
<text text-anchor="start" x="1483" y="-937.9" font-family="Arial" font-size="14.00" fill="#000000">token </text>
<text text-anchor="start" x="1521.129" y="-937.9" font-family="Arial" font-size="14.00" fill="#666666">[varchar(64)]</text>
<polygon fill="none" stroke="#000000" points="1476,-896.5 1476,-926.5 1785,-926.5 1785,-896.5 1476,-896.5"/>
<text text-anchor="start" x="1483" y="-907.9" font-family="Arial" font-size="14.00" fill="#000000">abilities </text>
<text text-anchor="start" x="1533.5554" y="-907.9" font-family="Arial" font-size="14.00" fill="#666666">[text]</text>
<polygon fill="none" stroke="#000000" points="1476,-866.5 1476,-896.5 1785,-896.5 1785,-866.5 1476,-866.5"/>
<text text-anchor="start" x="1483" y="-877.9" font-family="Arial" font-size="14.00" fill="#000000">last_used_at </text>
<text text-anchor="start" x="1566.2566" y="-877.9" font-family="Arial" font-size="14.00" fill="#666666">[timestamp]</text>
<polygon fill="none" stroke="#000000" points="1476,-836.5 1476,-866.5 1785,-866.5 1785,-836.5 1476,-836.5"/>
<text text-anchor="start" x="1483" y="-847.9" font-family="Arial" font-size="14.00" fill="#000000">expires_at </text>
<text text-anchor="start" x="1551.4614" y="-847.9" font-family="Arial" font-size="14.00" fill="#666666">[timestamp]</text>
<polygon fill="none" stroke="#000000" points="1476,-806.5 1476,-836.5 1785,-836.5 1785,-806.5 1476,-806.5"/>
<text text-anchor="start" x="1483" y="-817.9" font-family="Arial" font-size="14.00" fill="#000000">created_at </text>
<text text-anchor="start" x="1553.028" y="-817.9" font-family="Arial" font-size="14.00" fill="#666666">[timestamp]</text>
<polygon fill="none" stroke="#000000" points="1476,-776.5 1476,-806.5 1785,-806.5 1785,-776.5 1476,-776.5"/>
<text text-anchor="start" x="1483" y="-787.9" font-family="Arial" font-size="14.00" fill="#000000">updated_at </text>
<text text-anchor="start" x="1556.9326" y="-787.9" font-family="Arial" font-size="14.00" fill="#666666">[timestamp]</text>
</g>
<!-- results -->
<g id="node8" class="node">
<title>results</title>
<polygon fill="#efefef" stroke="transparent" points="250,-1016.5 250,-1051.5 421,-1051.5 421,-1016.5 250,-1016.5"/>
<polygon fill="none" stroke="#000000" points="250,-1016.5 250,-1051.5 421,-1051.5 421,-1016.5 250,-1016.5"/>
<text text-anchor="start" x="260.3726" y="-1029.3" font-family="Arial Bold" font-size="18.00" fill="#000000">results</text>
<text text-anchor="start" x="313.3736" y="-1029.3" font-family="Arial" font-size="14.00" fill="#000000"> </text>
<text text-anchor="start" x="317.2642" y="-1029.3" font-family="Arial" font-size="14.00" fill="#666666">[BASE TABLE]</text>
<polygon fill="none" stroke="#000000" points="250,-986.5 250,-1016.5 421,-1016.5 421,-986.5 250,-986.5"/>
<text text-anchor="start" x="257" y="-997.9" font-family="Arial" font-size="14.00" fill="#000000">id </text>
<text text-anchor="start" x="271.7798" y="-997.9" font-family="Arial" font-size="14.00" fill="#666666">[bigint unsigned]</text>
<polygon fill="none" stroke="#000000" points="250,-956.5 250,-986.5 421,-986.5 421,-956.5 250,-956.5"/>
<text text-anchor="start" x="257" y="-967.9" font-family="Arial" font-size="14.00" fill="#000000">user_id </text>
<text text-anchor="start" x="306.7882" y="-967.9" font-family="Arial" font-size="14.00" fill="#666666">[bigint unsigned]</text>
<polygon fill="none" stroke="#000000" points="250,-926.5 250,-956.5 421,-956.5 421,-926.5 250,-926.5"/>
<text text-anchor="start" x="256.9201" y="-937.9" font-family="Arial" font-size="14.00" fill="#000000">issue_id </text>
<text text-anchor="start" x="312.1543" y="-937.9" font-family="Arial" font-size="14.00" fill="#666666">[bigint unsigned]</text>
<polygon fill="none" stroke="#000000" points="250,-896.5 250,-926.5 421,-926.5 421,-896.5 250,-896.5"/>
<text text-anchor="start" x="257" y="-907.9" font-family="Arial" font-size="14.00" fill="#000000">answer </text>
<text text-anchor="start" x="306.0056" y="-907.9" font-family="Arial" font-size="14.00" fill="#666666">[tinyint(1)]</text>
<polygon fill="none" stroke="#000000" points="250,-866.5 250,-896.5 421,-896.5 421,-866.5 250,-866.5"/>
<text text-anchor="start" x="257" y="-877.9" font-family="Arial" font-size="14.00" fill="#000000">created_at </text>
<text text-anchor="start" x="327.028" y="-877.9" font-family="Arial" font-size="14.00" fill="#666666">[timestamp]</text>
<polygon fill="none" stroke="#000000" points="250,-836.5 250,-866.5 421,-866.5 421,-836.5 250,-836.5"/>
<text text-anchor="start" x="257" y="-847.9" font-family="Arial" font-size="14.00" fill="#000000">updated_at </text>
<text text-anchor="start" x="330.9326" y="-847.9" font-family="Arial" font-size="14.00" fill="#666666">[timestamp]</text>
</g>
<!-- results&#45;&gt;issues -->
<g id="edge2" class="edge">
<title>results:issue_id&#45;&gt;issues:id</title>
<path fill="none" stroke="#000000" d="M239.7491,-940.9529C102.1331,-925.1988 439.9793,-574.5 280,-574.5"/>
<polygon fill="#000000" stroke="#000000" points="240.0142,-940.9669 249.7601,-945.9936 245.0071,-941.2335 250,-941.5 250,-941.5 250,-941.5 245.0071,-941.2335 250.2399,-937.0064 240.0142,-940.9669 240.0142,-940.9669"/>
<text text-anchor="start" x="10.055" y="-951.5" font-family="Arial" font-size="10.00" fill="#000000">FOREIGN KEY (issue_id) REFERENCES issues (id)</text>
</g>
<!-- users -->
<g id="node9" class="node">
<title>users</title>
<polygon fill="#efefef" stroke="transparent" points="384,-619.5 384,-654.5 594,-654.5 594,-619.5 384,-619.5"/>
<polygon fill="none" stroke="#000000" points="384,-619.5 384,-654.5 594,-654.5 594,-619.5 384,-619.5"/>
<text text-anchor="start" x="418.3708" y="-632.3" font-family="Arial Bold" font-size="18.00" fill="#000000">users</text>
<text text-anchor="start" x="462.3754" y="-632.3" font-family="Arial" font-size="14.00" fill="#000000"> </text>
<text text-anchor="start" x="466.266" y="-632.3" font-family="Arial" font-size="14.00" fill="#666666">[BASE TABLE]</text>
<polygon fill="none" stroke="#000000" points="384,-589.5 384,-619.5 594,-619.5 594,-589.5 384,-589.5"/>
<text text-anchor="start" x="391" y="-600.9" font-family="Arial" font-size="14.00" fill="#000000">id </text>
<text text-anchor="start" x="405.7798" y="-600.9" font-family="Arial" font-size="14.00" fill="#666666">[bigint unsigned]</text>
<polygon fill="none" stroke="#000000" points="384,-559.5 384,-589.5 594,-589.5 594,-559.5 384,-559.5"/>
<text text-anchor="start" x="391" y="-570.9" font-family="Arial" font-size="14.00" fill="#000000">name </text>
<text text-anchor="start" x="429.899" y="-570.9" font-family="Arial" font-size="14.00" fill="#666666">[varchar(255)]</text>
<polygon fill="none" stroke="#000000" points="384,-529.5 384,-559.5 594,-559.5 594,-529.5 384,-529.5"/>
<text text-anchor="start" x="391" y="-540.9" font-family="Arial" font-size="14.00" fill="#000000">email </text>
<text text-anchor="start" x="428.3296" y="-540.9" font-family="Arial" font-size="14.00" fill="#666666">[varchar(255)]</text>
<polygon fill="none" stroke="#000000" points="384,-499.5 384,-529.5 594,-529.5 594,-499.5 384,-499.5"/>
<text text-anchor="start" x="391" y="-510.9" font-family="Arial" font-size="14.00" fill="#000000">email_verified_at </text>
<text text-anchor="start" x="500.6802" y="-510.9" font-family="Arial" font-size="14.00" fill="#666666">[timestamp]</text>
<polygon fill="none" stroke="#000000" points="384,-469.5 384,-499.5 594,-499.5 594,-469.5 384,-469.5"/>
<text text-anchor="start" x="391" y="-480.9" font-family="Arial" font-size="14.00" fill="#000000">password </text>
<text text-anchor="start" x="454.7882" y="-480.9" font-family="Arial" font-size="14.00" fill="#666666">[varchar(255)]</text>
<polygon fill="none" stroke="#000000" points="384,-439.5 384,-469.5 594,-469.5 594,-439.5 384,-439.5"/>
<text text-anchor="start" x="390.5982" y="-450.9" font-family="Arial" font-size="14.00" fill="#000000">remember_token </text>
<text text-anchor="start" x="500.2826" y="-450.9" font-family="Arial" font-size="14.00" fill="#666666">[varchar(100)]</text>
<polygon fill="none" stroke="#000000" points="384,-409.5 384,-439.5 594,-439.5 594,-409.5 384,-409.5"/>
<text text-anchor="start" x="391" y="-420.9" font-family="Arial" font-size="14.00" fill="#000000">group_id </text>
<text text-anchor="start" x="449.3534" y="-420.9" font-family="Arial" font-size="14.00" fill="#666666">[bigint unsigned]</text>
<polygon fill="none" stroke="#000000" points="384,-379.5 384,-409.5 594,-409.5 594,-379.5 384,-379.5"/>
<text text-anchor="start" x="391" y="-390.9" font-family="Arial" font-size="14.00" fill="#000000">is_admin </text>
<text text-anchor="start" x="450.8948" y="-390.9" font-family="Arial" font-size="14.00" fill="#666666">[tinyint(1)]</text>
<polygon fill="none" stroke="#000000" points="384,-349.5 384,-379.5 594,-379.5 594,-349.5 384,-349.5"/>
<text text-anchor="start" x="391" y="-360.9" font-family="Arial" font-size="14.00" fill="#000000">created_at </text>
<text text-anchor="start" x="461.028" y="-360.9" font-family="Arial" font-size="14.00" fill="#666666">[timestamp]</text>
<polygon fill="none" stroke="#000000" points="384,-319.5 384,-349.5 594,-349.5 594,-319.5 384,-319.5"/>
<text text-anchor="start" x="391" y="-330.9" font-family="Arial" font-size="14.00" fill="#000000">updated_at </text>
<text text-anchor="start" x="464.9326" y="-330.9" font-family="Arial" font-size="14.00" fill="#666666">[timestamp]</text>
</g>
<!-- results&#45;&gt;users -->
<g id="edge3" class="edge">
<title>results:user_id&#45;&gt;users:id</title>
<path fill="none" stroke="#000000" d="M431.1687,-970.8538C493.9557,-962.1796 434.7525,-867.9226 421,-794 412.6367,-749.0454 392.3633,-742.9546 384,-698 376.3995,-657.1454 342.4444,-604.5 384,-604.5"/>
<polygon fill="#000000" stroke="#000000" points="430.9799,-970.8657 420.7146,-967.0091 425.9899,-971.1829 421,-971.5 421,-971.5 421,-971.5 425.9899,-971.1829 421.2854,-975.9909 430.9799,-970.8657 430.9799,-970.8657"/>
<text text-anchor="start" x="187.945" y="-981.5" font-family="Arial" font-size="10.00" fill="#000000">FOREIGN KEY (user_id) REFERENCES users (id)</text>
</g>
<!-- users&#45;&gt;groups -->
<g id="edge4" class="edge">
<title>users:group_id&#45;&gt;groups:id</title>
<path fill="none" stroke="#000000" d="M604.1435,-423.8461C716.1713,-409.0327 692.0013,-147.5 572,-147.5"/>
<polygon fill="#000000" stroke="#000000" points="603.9793,-423.8566 593.7105,-420.0093 598.9896,-424.1783 594,-424.5 594,-424.5 594,-424.5 598.9896,-424.1783 594.2895,-428.9907 603.9793,-423.8566 603.9793,-423.8566"/>
<text text-anchor="start" x="600.827" y="-434.5" font-family="Arial" font-size="10.00" fill="#000000">FOREIGN KEY (group_id) REFERENCES groups (id)</text>
</g>
</g>
</svg>
