<?xml version="1.0" encoding="UTF-8" standalone="no"?>
<!DOCTYPE svg PUBLIC "-//W3C//DTD SVG 1.1//EN"
 "http://www.w3.org/Graphics/SVG/1.1/DTD/svg11.dtd">
<!-- Generated by graphviz version 2.40.1 (20161225.0304)
 -->
<!-- Title: users Pages: 1 -->
<svg width="516pt" height="1049pt"
 viewBox="0.00 0.00 516.00 1049.00" xmlns="http://www.w3.org/2000/svg" xmlns:xlink="http://www.w3.org/1999/xlink">
<g id="graph0" class="graph" transform="scale(1 1) rotate(0) translate(4 1045)">
<title>users</title>
<polygon fill="#ffffff" stroke="transparent" points="-4,4 -4,-1045 512,-1045 512,4 -4,4"/>
<!-- users -->
<g id="node1" class="node">
<title>users</title>
<polygon fill="#efefef" stroke="transparent" points="46,-622.5 46,-657.5 256,-657.5 256,-622.5 46,-622.5"/>
<polygon fill="none" stroke="#000000" points="46,-622.5 46,-657.5 256,-657.5 256,-622.5 46,-622.5"/>
<text text-anchor="start" x="80.3708" y="-635.3" font-family="Arial Bold" font-size="18.00" fill="#000000">users</text>
<text text-anchor="start" x="124.3754" y="-635.3" font-family="Arial" font-size="14.00" fill="#000000"> </text>
<text text-anchor="start" x="128.266" y="-635.3" font-family="Arial" font-size="14.00" fill="#666666">[BASE TABLE]</text>
<polygon fill="none" stroke="#000000" points="46,-592.5 46,-622.5 256,-622.5 256,-592.5 46,-592.5"/>
<text text-anchor="start" x="53" y="-603.9" font-family="Arial" font-size="14.00" fill="#000000">id </text>
<text text-anchor="start" x="67.7798" y="-603.9" font-family="Arial" font-size="14.00" fill="#666666">[bigint unsigned]</text>
<polygon fill="none" stroke="#000000" points="46,-562.5 46,-592.5 256,-592.5 256,-562.5 46,-562.5"/>
<text text-anchor="start" x="53" y="-573.9" font-family="Arial" font-size="14.00" fill="#000000">name </text>
<text text-anchor="start" x="91.899" y="-573.9" font-family="Arial" font-size="14.00" fill="#666666">[varchar(255)]</text>
<polygon fill="none" stroke="#000000" points="46,-532.5 46,-562.5 256,-562.5 256,-532.5 46,-532.5"/>
<text text-anchor="start" x="53" y="-543.9" font-family="Arial" font-size="14.00" fill="#000000">email </text>
<text text-anchor="start" x="90.3296" y="-543.9" font-family="Arial" font-size="14.00" fill="#666666">[varchar(255)]</text>
<polygon fill="none" stroke="#000000" points="46,-502.5 46,-532.5 256,-532.5 256,-502.5 46,-502.5"/>
<text text-anchor="start" x="53" y="-513.9" font-family="Arial" font-size="14.00" fill="#000000">email_verified_at </text>
<text text-anchor="start" x="162.6802" y="-513.9" font-family="Arial" font-size="14.00" fill="#666666">[timestamp]</text>
<polygon fill="none" stroke="#000000" points="46,-472.5 46,-502.5 256,-502.5 256,-472.5 46,-472.5"/>
<text text-anchor="start" x="53" y="-483.9" font-family="Arial" font-size="14.00" fill="#000000">password </text>
<text text-anchor="start" x="116.7882" y="-483.9" font-family="Arial" font-size="14.00" fill="#666666">[varchar(255)]</text>
<polygon fill="none" stroke="#000000" points="46,-442.5 46,-472.5 256,-472.5 256,-442.5 46,-442.5"/>
<text text-anchor="start" x="52.5982" y="-453.9" font-family="Arial" font-size="14.00" fill="#000000">remember_token </text>
<text text-anchor="start" x="162.2826" y="-453.9" font-family="Arial" font-size="14.00" fill="#666666">[varchar(100)]</text>
<polygon fill="none" stroke="#000000" points="46,-412.5 46,-442.5 256,-442.5 256,-412.5 46,-412.5"/>
<text text-anchor="start" x="53" y="-423.9" font-family="Arial" font-size="14.00" fill="#000000">group_id </text>
<text text-anchor="start" x="111.3534" y="-423.9" font-family="Arial" font-size="14.00" fill="#666666">[bigint unsigned]</text>
<polygon fill="none" stroke="#000000" points="46,-382.5 46,-412.5 256,-412.5 256,-382.5 46,-382.5"/>
<text text-anchor="start" x="53" y="-393.9" font-family="Arial" font-size="14.00" fill="#000000">is_admin </text>
<text text-anchor="start" x="112.8948" y="-393.9" font-family="Arial" font-size="14.00" fill="#666666">[tinyint(1)]</text>
<polygon fill="none" stroke="#000000" points="46,-352.5 46,-382.5 256,-382.5 256,-352.5 46,-352.5"/>
<text text-anchor="start" x="53" y="-363.9" font-family="Arial" font-size="14.00" fill="#000000">created_at </text>
<text text-anchor="start" x="123.028" y="-363.9" font-family="Arial" font-size="14.00" fill="#666666">[timestamp]</text>
<polygon fill="none" stroke="#000000" points="46,-322.5 46,-352.5 256,-352.5 256,-322.5 46,-322.5"/>
<text text-anchor="start" x="53" y="-333.9" font-family="Arial" font-size="14.00" fill="#000000">updated_at </text>
<text text-anchor="start" x="126.9326" y="-333.9" font-family="Arial" font-size="14.00" fill="#666666">[timestamp]</text>
<polygon fill="none" stroke="#000000" stroke-width="3" points="44.5,-321.5 44.5,-659.5 257.5,-659.5 257.5,-321.5 44.5,-321.5"/>
</g>
<!-- groups -->
<g id="node3" class="node">
<title>groups</title>
<polygon fill="#efefef" stroke="transparent" points="68,-162.5 68,-197.5 234,-197.5 234,-162.5 68,-162.5"/>
<polygon fill="none" stroke="#000000" points="68,-162.5 68,-197.5 234,-197.5 234,-162.5 68,-162.5"/>
<text text-anchor="start" x="74.8646" y="-175.3" font-family="Arial Bold" font-size="18.00" fill="#000000">groups</text>
<text text-anchor="start" x="129.8816" y="-175.3" font-family="Arial" font-size="14.00" fill="#000000"> </text>
<text text-anchor="start" x="133.7722" y="-175.3" font-family="Arial" font-size="14.00" fill="#666666">[BASE TABLE]</text>
<polygon fill="none" stroke="#000000" points="68,-132.5 68,-162.5 234,-162.5 234,-132.5 68,-132.5"/>
<text text-anchor="start" x="75" y="-143.9" font-family="Arial" font-size="14.00" fill="#000000">id </text>
<text text-anchor="start" x="89.7798" y="-143.9" font-family="Arial" font-size="14.00" fill="#666666">[bigint unsigned]</text>
<polygon fill="none" stroke="#000000" points="68,-102.5 68,-132.5 234,-132.5 234,-102.5 68,-102.5"/>
<text text-anchor="start" x="75" y="-113.9" font-family="Arial" font-size="14.00" fill="#000000">name </text>
<text text-anchor="start" x="113.899" y="-113.9" font-family="Arial" font-size="14.00" fill="#666666">[varchar(255)]</text>
<polygon fill="none" stroke="#000000" points="68,-72.5 68,-102.5 234,-102.5 234,-72.5 68,-72.5"/>
<text text-anchor="start" x="75" y="-83.9" font-family="Arial" font-size="14.00" fill="#000000">created_at </text>
<text text-anchor="start" x="145.028" y="-83.9" font-family="Arial" font-size="14.00" fill="#666666">[timestamp]</text>
<polygon fill="none" stroke="#000000" points="68,-42.5 68,-72.5 234,-72.5 234,-42.5 68,-42.5"/>
<text text-anchor="start" x="75" y="-53.9" font-family="Arial" font-size="14.00" fill="#000000">updated_at </text>
<text text-anchor="start" x="148.9326" y="-53.9" font-family="Arial" font-size="14.00" fill="#666666">[timestamp]</text>
</g>
<!-- users&#45;&gt;groups -->
<g id="edge2" class="edge">
<title>users:group_id&#45;&gt;groups:id</title>
<path fill="none" stroke="#000000" d="M265.8011,-424.9069C315.7921,-396.6795 292.8788,-147.5 234,-147.5"/>
<polygon fill="#000000" stroke="#000000" points="265.6674,-424.9422 254.849,-423.1497 260.8337,-426.2211 256,-427.5 256,-427.5 256,-427.5 260.8337,-426.2211 257.151,-431.8503 265.6674,-424.9422 265.6674,-424.9422"/>
<text text-anchor="start" x="262.827" y="-437.5" font-family="Arial" font-size="10.00" fill="#000000">FOREIGN KEY (group_id) REFERENCES groups (id)</text>
</g>
<!-- results -->
<g id="node2" class="node">
<title>results</title>
<polygon fill="#efefef" stroke="transparent" points="65,-962.5 65,-997.5 236,-997.5 236,-962.5 65,-962.5"/>
<polygon fill="none" stroke="#000000" points="65,-962.5 65,-997.5 236,-997.5 236,-962.5 65,-962.5"/>
<text text-anchor="start" x="75.3726" y="-975.3" font-family="Arial Bold" font-size="18.00" fill="#000000">results</text>
<text text-anchor="start" x="128.3736" y="-975.3" font-family="Arial" font-size="14.00" fill="#000000"> </text>
<text text-anchor="start" x="132.2642" y="-975.3" font-family="Arial" font-size="14.00" fill="#666666">[BASE TABLE]</text>
<polygon fill="none" stroke="#000000" points="65,-932.5 65,-962.5 236,-962.5 236,-932.5 65,-932.5"/>
<text text-anchor="start" x="72" y="-943.9" font-family="Arial" font-size="14.00" fill="#000000">id </text>
<text text-anchor="start" x="86.7798" y="-943.9" font-family="Arial" font-size="14.00" fill="#666666">[bigint unsigned]</text>
<polygon fill="none" stroke="#000000" points="65,-902.5 65,-932.5 236,-932.5 236,-902.5 65,-902.5"/>
<text text-anchor="start" x="72" y="-913.9" font-family="Arial" font-size="14.00" fill="#000000">user_id </text>
<text text-anchor="start" x="121.7882" y="-913.9" font-family="Arial" font-size="14.00" fill="#666666">[bigint unsigned]</text>
<polygon fill="none" stroke="#000000" points="65,-872.5 65,-902.5 236,-902.5 236,-872.5 65,-872.5"/>
<text text-anchor="start" x="71.9201" y="-883.9" font-family="Arial" font-size="14.00" fill="#000000">issue_id </text>
<text text-anchor="start" x="127.1543" y="-883.9" font-family="Arial" font-size="14.00" fill="#666666">[bigint unsigned]</text>
<polygon fill="none" stroke="#000000" points="65,-842.5 65,-872.5 236,-872.5 236,-842.5 65,-842.5"/>
<text text-anchor="start" x="72" y="-853.9" font-family="Arial" font-size="14.00" fill="#000000">answer </text>
<text text-anchor="start" x="121.0056" y="-853.9" font-family="Arial" font-size="14.00" fill="#666666">[tinyint(1)]</text>
<polygon fill="none" stroke="#000000" points="65,-812.5 65,-842.5 236,-842.5 236,-812.5 65,-812.5"/>
<text text-anchor="start" x="72" y="-823.9" font-family="Arial" font-size="14.00" fill="#000000">created_at </text>
<text text-anchor="start" x="142.028" y="-823.9" font-family="Arial" font-size="14.00" fill="#666666">[timestamp]</text>
<polygon fill="none" stroke="#000000" points="65,-782.5 65,-812.5 236,-812.5 236,-782.5 65,-782.5"/>
<text text-anchor="start" x="72" y="-793.9" font-family="Arial" font-size="14.00" fill="#000000">updated_at </text>
<text text-anchor="start" x="145.9326" y="-793.9" font-family="Arial" font-size="14.00" fill="#666666">[timestamp]</text>
</g>
<!-- results&#45;&gt;users -->
<g id="edge1" class="edge">
<title>results:user_id&#45;&gt;users:id</title>
<path fill="none" stroke="#000000" d="M245.9888,-916.8089C312.2786,-907.1241 284.0628,-798.0245 236,-740 181.1743,-673.8108 100.8257,-770.1892 46,-704 18.6411,-670.9705 3.1111,-607.5 46,-607.5"/>
<polygon fill="#000000" stroke="#000000" points="245.9762,-916.8097 235.6893,-913.0107 240.9881,-917.1548 236,-917.5 236,-917.5 236,-917.5 240.9881,-917.1548 236.3107,-921.9893 245.9762,-916.8097 245.9762,-916.8097"/>
<text text-anchor="start" x="242.945" y="-927.5" font-family="Arial" font-size="10.00" fill="#000000">FOREIGN KEY (user_id) REFERENCES users (id)</text>
</g>
</g>
</svg>
